SplineFontDB: 3.2
FontName: Untitled1
FullName: Untitled1
FamilyName: Untitled1
Weight: Regular
Copyright: Copyright (c) 2026, john
UComments: "2026-3-26: Created with FontForge (http://fontforge.org)"
Version: 001.000
ItalicAngle: 0
UnderlinePosition: -100
UnderlineWidth: 50
Ascent: 800
Descent: 200
InvalidEm: 0
LayerCount: 2
Layer: 0 0 "Back" 1
Layer: 1 0 "Fore" 0
XUID: [1021 39 -67577861 11944]
StyleMap: 0x0000
FSType: 0
OS2Version: 0
OS2_WeightWidthSlopeOnly: 0
OS2_UseTypoMetrics: 1
CreationTime: 1774520150
ModificationTime: 1774524444
OS2TypoAscent: 0
OS2TypoAOffset: 1
OS2TypoDescent: 0
OS2TypoDOffset: 1
OS2TypoLinegap: 90
OS2WinAscent: 0
OS2WinAOffset: 1
OS2WinDescent: 0
OS2WinDOffset: 1
HheadAscent: 0
HheadAOffset: 1
HheadDescent: 0
HheadDOffset: 1
OS2Vendor: 'PfEd'
DEI: 91125
Encoding: ISO8859-1
UnicodeInterp: none
NameList: AGL For New Fonts
DisplaySize: -48
AntiAlias: 1
FitToEm: 0
WinInfo: 0 31 15
BeginChars: 256 33

StartChar: exclam
Encoding: 33 33 0
Width: 861
Flags: HW
LayerCount: 2
Fore
SplineSet
-0.0009765625 799 m 5
 123 799 l 5
 123 -0.0009765625 l 5
 0 0 l 5
 -0.0009765625 799 l 5
123 799 m 5
 246 799 l 5
 246 0 l 5
 123 -0.0009765625 l 5
 123 799 l 5
246 799 m 5
 368.999023438 799 l 5
 369.000976562 0.0009765625 l 5
 246 0 l 5
 246 799 l 5
368.999023438 799 m 5
 492 799 l 5
 492 -0 l 5
 369.000976562 0.0009765625 l 5
 368.999023438 799 l 5
492 799 m 5
 615 799 l 5
 615 0 l 5
 492 -0 l 5
 492 799 l 5
615 799 m 5
 738 799 l 5
 738 0 l 5
 615 0 l 5
 615 799 l 5
738 799 m 5
 861 799 l 5
 861 -0.001953125 l 5
 738 0 l 5
 738 799 l 5
EndSplineSet
EndChar

StartChar: quotedbl
Encoding: 34 34 1
Width: 616
Flags: HW
LayerCount: 2
Fore
SplineSet
123 799 m 1
 246 799 l 1
 246 0 l 1
 123 -0.0009765625 l 1
 123 799 l 1
368.999023438 799 m 1
 492 799 l 1
 492 -0 l 1
 369.000976562 0.0009765625 l 1
 368.999023438 799 l 1
615 0 m 1025
EndSplineSet
EndChar

StartChar: A
Encoding: 65 65 2
Width: 861
Flags: HW
LayerCount: 2
Fore
SplineSet
368.999023438 0 m 1
 369.000976562 0.0009765625 l 1025
368.999023438 799 m 1
 492 799 l 1
 492 -0 l 1
 369.000976562 0.0009765625 l 1
 368.999023438 799 l 1
492 799 m 1
 615 799 l 1
 615 0 l 1
 492 -0 l 1
 492 799 l 1
738 799 m 1
 861 799 l 1
 861 -0.001953125 l 1
 738 0 l 1
 738 799 l 1
EndSplineSet
EndChar

StartChar: B
Encoding: 66 66 3
Width: 861
Flags: HW
LayerCount: 2
Fore
SplineSet
246 799 m 1
 368.999023438 799 l 1
 369.000976562 0.0009765625 l 1
 246 0 l 1
 246 799 l 1
368.999023438 799 m 1
 492 799 l 1
 492 -0 l 1
 369.000976562 0.0009765625 l 1
 368.999023438 799 l 1
492 -0 m 1
 492 2 l 1025
738 0 m 1
 738 0 l 1025
738 799 m 1
 861 799 l 1
 861 -0.001953125 l 1
 738 0 l 1
 738 799 l 1
EndSplineSet
EndChar

StartChar: C
Encoding: 67 67 4
Width: 861
Flags: HW
LayerCount: 2
Fore
SplineSet
246 0 m 1025
246 799 m 1
 368.999023438 799 l 1
 369.000976562 0.0009765625 l 1
 246 0 l 1
 246 799 l 1
369.000976562 0.0009765625 m 1025
615 0 m 1025
615 799 m 1
 738 799 l 1
 738 0 l 1
 615 0 l 1
 615 799 l 1
738 799 m 1
 861 799 l 1
 861 -0.001953125 l 1
 738 0 l 1
 738 799 l 1
EndSplineSet
EndChar

StartChar: D
Encoding: 68 68 5
Width: 861
Flags: HW
LayerCount: 2
Fore
SplineSet
123 799 m 1
 246 799 l 1
 246 0 l 1
 123 -0.0009765625 l 1
 123 799 l 1
246 799 m 1
 368.999023438 799 l 1
 369.000976562 0.0009765625 l 1
 246 0 l 1
 246 799 l 1
368.999023438 799 m 1
 492 799 l 1
 492 -0 l 1
 369.000976562 0.0009765625 l 1
 368.999023438 799 l 1
492 799 m 1
 615 799 l 1
 615 0 l 1
 492 -0 l 1
 492 799 l 1
738 799 m 1
 861 799 l 1
 861 -0.001953125 l 1
 738 0 l 1
 738 799 l 1
EndSplineSet
EndChar

StartChar: E
Encoding: 69 69 6
Width: 861
Flags: HW
LayerCount: 2
Fore
SplineSet
123 799 m 1
 246 799 l 1
 246 0 l 1
 123 -0.0009765625 l 1
 123 799 l 1
246 0 m 1025
615 0 m 1025
615 799 m 1
 738 799 l 1
 738 0 l 1
 615 0 l 1
 615 799 l 1
738 799 m 1
 861 799 l 1
 861 -0.001953125 l 1
 738 0 l 1
 738 799 l 1
EndSplineSet
EndChar

StartChar: F
Encoding: 70 70 7
Width: 861
Flags: HW
LayerCount: 2
Fore
SplineSet
123 799 m 1
 246 799 l 1
 246 0 l 1
 123 -0.0009765625 l 1
 123 799 l 1
246 799 m 1
 368.999023438 799 l 1
 369.000976562 0.0009765625 l 1
 246 0 l 1
 246 799 l 1
369.000976562 0.0009765625 m 1025
738 0 m 1025
738 799 m 1
 861 799 l 1
 861 -0.001953125 l 1
 738 0 l 1
 738 799 l 1
EndSplineSet
EndChar

StartChar: G
Encoding: 71 71 8
Width: 861
Flags: HW
LayerCount: 2
Fore
SplineSet
123 799 m 1
 246 799 l 1
 246 0 l 1
 123 -0.0009765625 l 1
 123 799 l 1
368.999023438 799 m 1
 492 799 l 1
 492 -0 l 1
 369.000976562 0.0009765625 l 1
 368.999023438 799 l 1
492 799 m 1
 615 799 l 1
 615 0 l 1
 492 -0 l 1
 492 799 l 1
615 799 m 1
 738 799 l 1
 738 0 l 1
 615 0 l 1
 615 799 l 1
738 799 m 1
 861 799 l 1
 861 -0.001953125 l 1
 738 0 l 1
 738 799 l 1
EndSplineSet
EndChar

StartChar: H
Encoding: 72 72 9
Width: 861
Flags: HW
LayerCount: 2
Fore
SplineSet
123 799 m 1
 246 799 l 1
 246 0 l 1
 123 -0.0009765625 l 1
 123 799 l 1
246 799 m 1
 368.999023438 799 l 1
 369.000976562 0.0009765625 l 1
 246 0 l 1
 246 799 l 1
368.999023438 799 m 1
 492 799 l 1
 492 -0 l 1
 369.000976562 0.0009765625 l 1
 368.999023438 799 l 1
615 799 m 1
 738 799 l 1
 738 0 l 1
 615 0 l 1
 615 799 l 1
738 799 m 1
 861 799 l 1
 861 -0.001953125 l 1
 738 0 l 1
 738 799 l 1
EndSplineSet
EndChar

StartChar: I
Encoding: 73 73 10
Width: 861
Flags: HW
LayerCount: 2
Fore
SplineSet
123 799 m 1
 246 799 l 1
 246 0 l 1
 123 -0.0009765625 l 1
 123 799 l 1
246 799 m 1
 368.999023438 799 l 1
 369.000976562 0.0009765625 l 1
 246 0 l 1
 246 799 l 1
492 799 m 1
 615 799 l 1
 615 0 l 1
 492 -0 l 1
 492 799 l 1
615 799 m 1
 738 799 l 1
 738 0 l 1
 615 0 l 1
 615 799 l 1
738 799 m 1
 861 799 l 1
 861 -0.001953125 l 1
 738 0 l 1
 738 799 l 1
EndSplineSet
EndChar

StartChar: J
Encoding: 74 74 11
Width: 861
Flags: HW
LayerCount: 2
Fore
SplineSet
368.999023438 799 m 1
 492 799 l 1
 492 -0 l 1
 369.000976562 0.0009765625 l 1
 368.999023438 799 l 1
615 799 m 1
 738 799 l 1
 738 0 l 1
 615 0 l 1
 615 799 l 1
738 799 m 1
 861 799 l 1
 861 -0.001953125 l 1
 738 0 l 1
 738 799 l 1
EndSplineSet
EndChar

StartChar: numbersign
Encoding: 35 35 12
Width: 368
Flags: HW
HStem: -0.000976562 21G<0 123 246 369.001> 779 20G<-0.000976562 123 246 368.999>
VStem: 0 123<0 799> 246 123.001<0.000976562 799>
LayerCount: 2
Fore
SplineSet
-0.0009765625 799 m 1
 123 799 l 1
 123 -0.0009765625 l 1
 0 0 l 1
 -0.0009765625 799 l 1
246 799 m 1
 368.999023438 799 l 1
 369.000976562 0.0009765625 l 5
 246 0 l 1
 246 799 l 1
369.000976562 0.0009765625 m 5
 368.999023438 799 l 1025
EndSplineSet
EndChar

StartChar: a
Encoding: 97 97 13
Width: 861
Flags: HW
LayerCount: 2
Fore
SplineSet
123 799 m 1
 246 799 l 1
 246 0 l 1
 123 -0.0009765625 l 1
 123 799 l 1
246 0 m 1025
492 -0 m 1025
492 799 m 1
 615 799 l 1
 615 0 l 1
 492 -0 l 1
 492 799 l 1
615 799 m 1
 738 799 l 1
 738 0 l 1
 615 0 l 1
 615 799 l 1
738 799 m 1
 861 799 l 1
 861 -0.001953125 l 1
 738 0 l 1
 738 799 l 1
EndSplineSet
EndChar

StartChar: b
Encoding: 98 98 14
Width: 861
Flags: HW
LayerCount: 2
Fore
SplineSet
123 799 m 1
 246 799 l 1
 246 0 l 1
 123 -0.0009765625 l 1
 123 799 l 1
246 799 m 1
 368.999023438 799 l 1
 369.000976562 0.0009765625 l 1
 246 0 l 1
 246 799 l 1
369.000976562 0.0009765625 m 1025
615 0 m 1025
615 799 m 1
 738 799 l 1
 738 0 l 1
 615 0 l 1
 615 799 l 1
738 799 m 1
 861 799 l 1
 861 -0.001953125 l 1
 738 0 l 1
 738 799 l 1
EndSplineSet
EndChar

StartChar: c
Encoding: 99 99 15
Width: 861
Flags: HW
LayerCount: 2
Fore
SplineSet
246 799 m 1
 368.999023438 799 l 1
 369.000976562 0.0009765625 l 1
 246 0 l 1
 246 799 l 1
368.999023438 799 m 1
 492 799 l 1
 492 -0 l 1
 369.000976562 0.0009765625 l 1
 368.999023438 799 l 1
615 799 m 1
 738 799 l 1
 738 0 l 1
 615 0 l 1
 615 799 l 1
738 799 m 1
 861 799 l 1
 861 -0.001953125 l 1
 738 0 l 1
 738 799 l 1
EndSplineSet
EndChar

StartChar: d
Encoding: 100 100 16
Width: 861
Flags: HW
LayerCount: 2
Fore
SplineSet
123 799 m 1
 246 799 l 1
 246 0 l 1
 123 -0.0009765625 l 1
 123 799 l 1
246 0 m 1025
738 0 m 1025
738 799 m 1
 861 799 l 1
 861 -0.001953125 l 1
 738 0 l 1
 738 799 l 1
EndSplineSet
EndChar

StartChar: e
Encoding: 101 101 17
Width: 861
Flags: HW
LayerCount: 2
Fore
SplineSet
246 799 m 1
 368.999023438 799 l 1
 369.000976562 0.0009765625 l 1
 246 0 l 1
 246 799 l 1
368.999023438 799 m 1
 492 799 l 1
 492 -0 l 1
 369.000976562 0.0009765625 l 1
 368.999023438 799 l 1
492 799 m 1
 615 799 l 1
 615 0 l 1
 492 -0 l 1
 492 799 l 1
738 799 m 1
 861 799 l 1
 861 -0.001953125 l 1
 738 0 l 1
 738 799 l 1
EndSplineSet
EndChar

StartChar: f
Encoding: 102 102 18
Width: 861
Flags: HW
LayerCount: 2
Fore
SplineSet
123 799 m 1
 246 799 l 1
 246 0 l 1
 123 -0.0009765625 l 1
 123 799 l 1
246 799 m 1
 368.999023438 799 l 1
 369.000976562 0.0009765625 l 1
 246 0 l 1
 246 799 l 1
368.999023438 799 m 1
 492 799 l 1
 492 -0 l 1
 369.000976562 0.0009765625 l 1
 368.999023438 799 l 1
738 799 m 1
 861 799 l 1
 861 -0.001953125 l 1
 738 0 l 1
 738 799 l 1
EndSplineSet
EndChar

StartChar: g
Encoding: 103 103 19
Width: 861
Flags: HW
LayerCount: 2
Fore
SplineSet
492 799 m 1
 615 799 l 1
 615 0 l 1
 492 -0 l 1
 492 799 l 1
738 799 m 1
 861 799 l 1
 861 -0.001953125 l 1
 738 0 l 1
 738 799 l 1
EndSplineSet
EndChar

StartChar: h
Encoding: 104 104 20
Width: 861
Flags: HW
LayerCount: 2
Fore
SplineSet
246 799 m 1
 368.999023438 799 l 1
 369.000976562 0.0009765625 l 1
 246 0 l 1
 246 799 l 1
738 799 m 1
 861 799 l 1
 861 -0.001953125 l 1
 738 0 l 1
 738 799 l 1
EndSplineSet
EndChar

StartChar: i
Encoding: 105 105 21
Width: 861
Flags: HW
LayerCount: 2
Fore
SplineSet
368.999023438 799 m 1
 492 799 l 1
 492 -0 l 1
 369.000976562 0.0009765625 l 1
 368.999023438 799 l 1
738 799 m 1
 861 799 l 1
 861 -0.001953125 l 1
 738 0 l 1
 738 799 l 1
EndSplineSet
EndChar

StartChar: j
Encoding: 106 106 22
Width: 861
Flags: HW
LayerCount: 2
Fore
SplineSet
246 799 m 1
 368.999023438 799 l 1
 369.000976562 0.0009765625 l 1
 246 0 l 1
 246 799 l 1
492 799 m 1
 615 799 l 1
 615 0 l 1
 492 -0 l 1
 492 799 l 1
615 799 m 1
 738 799 l 1
 738 0 l 1
 615 0 l 1
 615 799 l 1
738 799 m 1
 861 799 l 1
 861 -0.001953125 l 1
 738 0 l 1
 738 799 l 1
EndSplineSet
EndChar

StartChar: zero
Encoding: 48 48 23
Width: 861
Flags: HW
LayerCount: 2
Fore
SplineSet
-0.0009765625 799 m 1
 123 799 l 1
 123 -0.0009765625 l 1
 0 0 l 1
 -0.0009765625 799 l 1
123 799 m 1
 246 799 l 1
 246 0 l 1
 123 -0.0009765625 l 1
 123 799 l 1
246 799 m 1
 368.999023438 799 l 1
 369.000976562 0.0009765625 l 1
 246 0 l 1
 246 799 l 1
615 799 m 1
 738 799 l 1
 738 0 l 1
 615 0 l 1
 615 799 l 1
EndSplineSet
EndChar

StartChar: one
Encoding: 49 49 24
Width: 861
Flags: HW
LayerCount: 2
Fore
SplineSet
-0.0009765625 799 m 1
 123 799 l 1
 123 -0.0009765625 l 1
 0 0 l 1
 -0.0009765625 799 l 1
123 799 m 1
 246 799 l 1
 246 0 l 1
 123 -0.0009765625 l 1
 123 799 l 1
492 799 m 1
 615 799 l 1
 615 0 l 1
 492 -0 l 1
 492 799 l 1
615 799 m 1
 738 799 l 1
 738 0 l 1
 615 0 l 1
 615 799 l 1
EndSplineSet
EndChar

StartChar: two
Encoding: 50 50 25
Width: 861
Flags: HW
LayerCount: 2
Fore
SplineSet
-0.0009765625 799 m 1
 123 799 l 1
 123 -0.0009765625 l 1
 0 0 l 1
 -0.0009765625 799 l 1
123 799 m 1
 246 799 l 1
 246 0 l 1
 123 -0.0009765625 l 1
 123 799 l 1
368.999023438 799 m 1
 492 799 l 1
 492 -0 l 1
 369.000976562 0.0009765625 l 1
 368.999023438 799 l 1
492 799 m 1
 615 799 l 1
 615 0 l 1
 492 -0 l 1
 492 799 l 1
EndSplineSet
EndChar

StartChar: three
Encoding: 51 51 26
Width: 861
Flags: HW
LayerCount: 2
Fore
SplineSet
-0.0009765625 799 m 1
 123 799 l 1
 123 -0.0009765625 l 1
 0 0 l 1
 -0.0009765625 799 l 1
615 799 m 1
 738 799 l 1
 738 0 l 1
 615 0 l 1
 615 799 l 1
EndSplineSet
EndChar

StartChar: four
Encoding: 52 52 27
Width: 861
Flags: HW
LayerCount: 2
Fore
SplineSet
-0.0009765625 799 m 1
 123 799 l 1
 123 -0.0009765625 l 1
 0 0 l 1
 -0.0009765625 799 l 1
246 799 m 1
 368.999023438 799 l 1
 369.000976562 0.0009765625 l 1
 246 0 l 1
 246 799 l 1
368.999023438 799 m 1
 492 799 l 1
 492 -0 l 1
 369.000976562 0.0009765625 l 1
 368.999023438 799 l 1
492 799 m 1
 615 799 l 1
 615 0 l 1
 492 -0 l 1
 492 799 l 1
EndSplineSet
EndChar

StartChar: five
Encoding: 53 53 28
Width: 861
Flags: HW
LayerCount: 2
Fore
SplineSet
-0.0009765625 799 m 1
 123 799 l 1
 123 -0.0009765625 l 1
 0 0 l 1
 -0.0009765625 799 l 1
368.999023438 799 m 1
 492 799 l 1
 492 -0 l 1
 369.000976562 0.0009765625 l 1
 368.999023438 799 l 1
492 799 m 1
 615 799 l 1
 615 0 l 1
 492 -0 l 1
 492 799 l 1
615 799 m 1
 738 799 l 1
 738 0 l 1
 615 0 l 1
 615 799 l 1
EndSplineSet
EndChar

StartChar: six
Encoding: 54 54 29
Width: 861
Flags: HW
LayerCount: 2
Fore
SplineSet
-0.0009765625 799 m 1
 123 799 l 1
 123 -0.0009765625 l 1
 0 0 l 1
 -0.0009765625 799 l 1
246 799 m 1
 368.999023438 799 l 1
 369.000976562 0.0009765625 l 1
 246 0 l 1
 246 799 l 1
EndSplineSet
EndChar

StartChar: seven
Encoding: 55 55 30
Width: 861
Flags: HW
LayerCount: 2
Fore
SplineSet
-0.0009765625 799 m 1
 123 799 l 1
 123 -0.0009765625 l 1
 0 0 l 1
 -0.0009765625 799 l 1
492 799 m 1
 615 799 l 1
 615 0 l 1
 492 -0 l 1
 492 799 l 1
EndSplineSet
EndChar

StartChar: eight
Encoding: 56 56 31
Width: 861
Flags: HW
LayerCount: 2
Fore
SplineSet
-0.0009765625 799 m 1
 123 799 l 1
 123 -0.0009765625 l 1
 0 0 l 1
 -0.0009765625 799 l 1
368.999023438 799 m 1
 492 799 l 1
 492 -0 l 1
 369.000976562 0.0009765625 l 1
 368.999023438 799 l 1
EndSplineSet
EndChar

StartChar: nine
Encoding: 57 57 32
Width: 861
Flags: HW
LayerCount: 2
Fore
SplineSet
-0.0009765625 799 m 1
 123 799 l 1
 123 -0.0009765625 l 1
 0 0 l 1
 -0.0009765625 799 l 1
123 799 m 1
 246 799 l 1
 246 0 l 1
 123 -0.0009765625 l 1
 123 799 l 1
246 799 m 1
 368.999023438 799 l 1
 369.000976562 0.0009765625 l 1
 246 0 l 1
 246 799 l 1
492 799 m 1
 615 799 l 1
 615 0 l 1
 492 -0 l 1
 492 799 l 1
EndSplineSet
EndChar
